<svg viewBox="0 0 22 22" fill="none" xmlns="http://www.w3.org/2000/svg">
<g clip-path="url(#clip0_47_3)">
<path d="M13.1111 12.7778H12.4089L12.16 12.5378C13.0311 11.5244 13.5556 10.2089 13.5556 8.77778C13.5556 5.58667 10.9689 3 7.77778 3C4.58667 3 2 5.58667 2 8.77778C2 11.9689 4.58667 14.5556 7.77778 14.5556C9.20889 14.5556 10.5244 14.0311 11.5378 13.16L11.7778 13.4089V14.1111L16.2222 18.5467L17.5467 17.2222L13.1111 12.7778ZM7.77778 12.7778C5.56444 12.7778 3.77778 10.9911 3.77778 8.77778C3.77778 6.56444 5.56444 4.77778 7.77778 4.77778C9.99111 4.77778 11.7778 6.56444 11.7778 8.77778C11.7778 10.9911 9.99111 12.7778 7.77778 12.7778ZM5.55556 8.33333H10V9.22222H5.55556V8.33333Z" fill="white"/>
</g>
<defs>
<clipPath id="clip0_47_3">
<rect width="21.3333" height="21.3333" fill="white" transform="translate(0.333496 0.333374)"/>
</clipPath>
</defs>
</svg>
