<svg viewBox="0 0 22 22" fill="none" xmlns="http://www.w3.org/2000/svg">
<g clip-path="url(#clip0_47_6)">
<path d="M15.1111 12.7778H14.4089L14.16 12.5378C15.0311 11.5244 15.5556 10.2089 15.5556 8.77778C15.5556 5.58667 12.9689 3 9.77778 3C6.58667 3 4 5.58667 4 8.77778C4 11.9689 6.58667 14.5556 9.77778 14.5556C11.2089 14.5556 12.5244 14.0311 13.5378 13.16L13.7778 13.4089V14.1111L18.2222 18.5467L19.5467 17.2222L15.1111 12.7778ZM9.77778 12.7778C7.56444 12.7778 5.77778 10.9911 5.77778 8.77778C5.77778 6.56444 7.56444 4.77778 9.77778 4.77778C11.9911 4.77778 13.7778 6.56444 13.7778 8.77778C13.7778 10.9911 11.9911 12.7778 9.77778 12.7778Z" fill="white"/>
<path d="M12.0001 9.22221H10.2223V11H9.33344V9.22221H7.55566V8.33332H9.33344V6.55554H10.2223V8.33332H12.0001V9.22221Z" fill="white"/>
</g>
<defs>
<clipPath id="clip0_47_6">
<rect width="21.3333" height="21.3333" fill="white" transform="translate(0.333496 0.333374)"/>
</clipPath>
</defs>
</svg>
